<svg width="24" height="24" viewBox="0 0 24 24" fill="none" xmlns="http://www.w3.org/2000/svg">
<g clip-path="url(#clip0_211_68)">
<path d="M8.92409 18.3743C4.20536 19.7899 4.20536 16.0149 2.31787 15.543M15.5303 21.2055V17.5532C15.5657 17.1032 15.5049 16.6508 15.352 16.2261C15.199 15.8014 14.9574 15.4141 14.6432 15.09C17.6065 14.7597 20.7209 13.6367 20.7209 8.48383C20.7207 7.16619 20.2138 5.89909 19.3053 4.94478C19.7355 3.792 19.7051 2.5178 19.2204 1.38686C19.2204 1.38686 18.1067 1.05655 15.5303 2.7836C13.3673 2.19737 11.0871 2.19737 8.92409 2.7836C6.34766 1.05655 5.23404 1.38686 5.23404 1.38686C4.74931 2.5178 4.7189 3.792 5.14911 4.94478C4.23379 5.90617 3.72643 7.18472 3.73349 8.51214C3.73349 13.6272 6.84785 14.7503 9.81121 15.1184C9.50072 15.4392 9.26126 15.8218 9.10841 16.2413C8.95557 16.6608 8.89276 17.1078 8.92409 17.5532V21.2055" stroke="#FDFCFA" stroke-linecap="round" stroke-linejoin="round"/>
</g>
<defs>
<clipPath id="clip0_211_68">
<rect width="22.6499" height="22.6499" fill="white" transform="translate(0.43042 0.443115)"/>
</clipPath>
</defs>
</svg>
