<svg width="24" height="24" viewBox="0 0 24 24" fill="none" xmlns="http://www.w3.org/2000/svg">
<path d="M15.9874 7.99316C17.4892 7.99316 18.9295 8.58974 19.9914 9.65166C21.0533 10.7136 21.6499 12.1539 21.6499 13.6556V20.2619H17.8749V13.6556C17.8749 13.155 17.6761 12.675 17.3221 12.321C16.9681 11.967 16.488 11.7681 15.9874 11.7681C15.4868 11.7681 15.0067 11.967 14.6528 12.321C14.2988 12.675 14.0999 13.155 14.0999 13.6556V20.2619H10.325V13.6556C10.325 12.1539 10.9215 10.7136 11.9835 9.65166C13.0454 8.58974 14.4856 7.99316 15.9874 7.99316Z" stroke="#FDFCFA" stroke-linecap="round" stroke-linejoin="round"/>
<path d="M6.54988 8.93677H2.7749V20.2617H6.54988V8.93677Z" stroke="#FDFCFA" stroke-linecap="round" stroke-linejoin="round"/>
<path d="M4.66239 6.10555C5.70483 6.10555 6.54988 5.26049 6.54988 4.21806C6.54988 3.17562 5.70483 2.33057 4.66239 2.33057C3.61996 2.33057 2.7749 3.17562 2.7749 4.21806C2.7749 5.26049 3.61996 6.10555 4.66239 6.10555Z" stroke="#FDFCFA" stroke-linecap="round" stroke-linejoin="round"/>
</svg>
