<svg width="17" height="17" viewBox="0 0 17 17" fill="none" xmlns="http://www.w3.org/2000/svg">
<g clip-path="url(#clip0_211_91)">
<path d="M8.88629 11.2643C10.3606 11.2643 11.5558 10.0691 11.5558 8.59478C11.5558 7.12046 10.3606 5.92529 8.88629 5.92529C7.41197 5.92529 6.2168 7.12046 6.2168 8.59478C6.2168 10.0691 7.41197 11.2643 8.88629 11.2643Z" stroke="#FDFCFA" stroke-linecap="round" stroke-linejoin="round"/>
<path d="M11.5557 5.92545V9.26231C11.5557 9.7933 11.7667 10.3025 12.1421 10.678C12.5176 11.0535 13.0269 11.2644 13.5579 11.2644C14.0889 11.2644 14.5981 11.0535 14.9736 10.678C15.349 10.3025 15.56 9.7933 15.56 9.26231V8.59494C15.5599 7.0887 15.0503 5.62678 14.114 4.44691C13.1777 3.26703 11.8698 2.43858 10.4029 2.09627C8.93612 1.75395 7.39663 1.91791 6.0348 2.56147C4.67297 3.20504 3.5689 4.29036 2.9021 5.64096C2.2353 6.99157 2.045 8.52802 2.36213 10.0005C2.67927 11.473 3.48519 12.7949 4.64886 13.7512C5.81252 14.7076 7.26549 15.2422 8.77151 15.2681C10.2775 15.294 11.748 14.8097 12.9439 13.8939" stroke="#FDFCFA" stroke-linecap="round" stroke-linejoin="round"/>
</g>
<defs>
<clipPath id="clip0_211_91">
<rect width="16.0169" height="16.0169" fill="white" transform="translate(0.877808 0.586426)"/>
</clipPath>
</defs>
</svg>
