<svg width="1920" height="1084" viewBox="0 0 1920 1084" fill="none" xmlns="http://www.w3.org/2000/svg">
<path d="M1924 0H-11V1045H1924V0Z" fill="url(#paint0_linear_179_30)"/>
<path d="M555.5 1017C706.55 1017 829 895.445 829 745.5C829 595.555 706.55 474 555.5 474C404.45 474 282 595.555 282 745.5C282 895.445 404.45 1017 555.5 1017Z" fill="#D25A14" fill-opacity="0.375758"/>
<path d="M555.5 920.789C653.023 920.789 732.08 842.309 732.08 745.5C732.08 648.691 653.023 570.211 555.5 570.211C457.978 570.211 378.92 648.691 378.92 745.5C378.92 842.309 457.978 920.789 555.5 920.789Z" fill="#D2550C"/>
<path d="M-29.2866 472.936C-13.7538 454.067 8.25388 443.778 33.5979 440.157C58.9419 436.536 89.9465 439.141 131.207 455.381C172.468 471.62 233.068 505.526 284.537 532.283C336.005 559.041 385.647 582.548 440.55 595.599C495.453 608.65 559.867 612.24 608.576 613.56C657.285 614.88 693.027 613.974 736.156 626.708C779.286 639.442 833.133 666.543 876.437 680.713C919.741 694.883 955.171 696.256 996.268 690.799C1037.37 685.342 1086.04 673.018 1141.54 665.95C1197.03 658.882 1260.94 657.091 1316.32 654.47C1371.7 651.848 1422.58 648.167 1472.63 636.087C1522.68 624.008 1578.03 602.449 1617.32 595.318C1656.6 588.187 1683.22 593.479 1719.49 611.514C1755.77 629.549 1804.4 662.348 1842.58 681.395C1880.77 700.441 1933.3 713.83 1955.48 727.818C1977.65 741.806 1996.69 815.826 1965.98 850.662C1935.28 885.497 1847.94 923.287 1771.14 943.386C1694.34 963.485 1616.9 970.748 1504.62 976.46C1392.34 982.171 1245.12 986.349 1119.48 990.637C993.845 994.924 889.644 999.328 781.772 1001.64C673.899 1003.94 561.438 1004.16 456.145 1016.87C350.851 1029.58 249.123 1055.5 177.242 1040.42C105.361 1025.35 55.4496 966.467 28.182 914.786C0.914379 863.105 -7.92262 811.493 -19.7372 751.585C-31.5518 691.677 -46.8319 621.001 -50.2656 573.185C-53.6993 525.37 -44.8194 491.806 -29.2866 472.936Z" fill="#E4E4E4" fill-opacity="0.39798"/>
<path d="M1920.38 50C1890.2 55.8863 1862.05 63.2823 1841.21 73.9088C1805.37 92.1819 1773.75 129.717 1732.64 155.298C1691.53 180.878 1616.14 208.265 1560.47 218.858C1504.8 229.452 1456.76 227.925 1414.97 224.966C1373.17 222.008 1337.63 217.577 1289.2 231.977C1240.77 246.377 1177.02 280.711 1110.77 306.576C1044.51 332.441 970.364 351.341 917.174 366.305C863.984 381.269 814.258 397.678 803.253 402.346C792.247 407.014 856.19 445.296 899.528 445.937C942.865 446.578 1005.29 431.281 1065.92 424.275C1126.56 417.27 1194.51 418.235 1251.77 422.919C1309.03 427.603 1370.01 436.707 1454.91 432.349C1539.81 427.992 1654.7 409.976 1738.65 393.549C1813.13 378.973 1869.57 364.339 1920.38 349.434V50Z" fill="#E4E4E4" fill-opacity="0.39798"/>
<path d="M2 45V390.986C27.9082 390.89 53.4305 389.928 77.4396 388.401C159.003 383.211 224.433 371.518 283.112 351.93C341.791 332.342 391.901 306.031 443.391 287.478C494.881 268.925 549.011 258.48 575.488 253.372C601.965 248.263 537.407 161.107 469.615 143.633C401.823 126.158 288.337 122.617 198.773 105.868C122.847 91.6692 61.3426 67.0151 2 45Z" fill="#E4E4E4" fill-opacity="0.39798"/>
<path d="M-2.5 696L222.245 609.547L396.358 709.698L731.19 643.745L910.66 714.583L1138.35 536.266L1470.5 685.271L1580.32 633.974L1719.61 690.156L1923.19 441V1071H-2.5V696Z" fill="url(#paint1_linear_179_30)"/>
<path d="M-2.70483 680L68 746.5L146.404 711.653L295.17 772.321L338.447 724.842L625.159 814.525L830.726 685.276L1098.5 782.872L1488 716.929L1815.28 790.785L1921 715L1919.5 1071L-2.70483 1073.5V680Z" fill="#67003A"/>
<path d="M4 746L195.058 854.106L396.585 827.739L535.299 920.024L807.492 893.657L985.464 1007.04L1260.27 1020.22L1443.48 946.392L1600.51 985.943L1803.81 877.973L1928 901.567V1084H4V746Z" fill="#5D002E"/>
<g filter="url(#filter0_d_179_30)">
<path d="M751.496 369.77C751.496 373.354 750.728 376.522 749.192 379.274C747.72 381.962 745.736 384.234 743.24 386.09C740.808 387.882 737.992 389.258 734.792 390.218C731.656 391.178 728.392 391.69 725 391.754C721.672 391.818 718.376 391.466 715.112 390.698C711.912 389.866 709 388.618 706.376 386.954C703.816 385.226 701.672 383.082 699.944 380.522C698.28 377.898 697.32 374.858 697.064 371.402L712.232 370.154C712.296 371.69 712.808 373.002 713.768 374.09C714.792 375.178 716.04 376.042 717.512 376.682C718.984 377.258 720.584 377.642 722.312 377.834C724.104 377.962 725.864 377.898 727.592 377.642C730.152 377.322 732.2 376.49 733.736 375.146C735.272 373.738 736.136 372.234 736.328 370.634C736.52 368.97 735.944 367.434 734.6 366.026C733.256 364.554 730.984 363.594 727.784 363.146C724.904 362.634 722.056 362.282 719.24 362.09C716.424 361.898 713.704 361.386 711.08 360.554C706.344 359.274 702.664 356.906 700.04 353.45C697.416 349.93 696.104 345.866 696.104 341.258C696.104 337.674 696.84 334.506 698.312 331.754C699.848 329.002 701.832 326.73 704.264 324.938C706.76 323.082 709.608 321.674 712.808 320.714C716.008 319.754 719.272 319.242 722.6 319.178C725.928 319.05 729.192 319.402 732.392 320.234C735.656 321.066 738.6 322.346 741.224 324.074C743.848 325.738 745.992 327.85 747.656 330.41C749.384 332.97 750.376 335.978 750.632 339.434L735.368 340.874C735.304 339.594 734.92 338.474 734.216 337.514C733.512 336.49 732.584 335.658 731.432 335.018C730.344 334.314 729.096 333.802 727.688 333.482C726.344 333.162 724.936 333.002 723.464 333.002C721.288 333.002 719.336 333.354 717.608 334.058C715.944 334.698 714.568 335.53 713.48 336.554C712.456 337.578 711.784 338.73 711.464 340.01C711.208 341.226 711.368 342.41 711.944 343.562C712.52 344.65 713.608 345.642 715.208 346.538C716.808 347.37 718.984 347.914 721.736 348.17C722.952 348.298 724.104 348.362 725.192 348.362C726.344 348.362 727.464 348.426 728.552 348.554C731.816 348.938 734.824 349.674 737.576 350.762C740.392 351.786 742.824 353.194 744.872 354.986C746.984 356.714 748.616 358.826 749.768 361.322C750.92 363.754 751.496 366.57 751.496 369.77ZM761.173 335.69H777.205V390.89H761.173V335.69ZM777.205 318.986V331.85H761.173V318.986H777.205ZM809.69 335.498H823.418V351.626H809.69V371.498C809.69 372.522 810.074 373.45 810.842 374.282C811.61 375.05 812.538 375.434 813.626 375.434H823.322V391.37H813.626C811.002 391.37 808.506 390.858 806.138 389.834C803.77 388.746 801.658 387.306 799.802 385.514C798.01 383.722 796.57 381.642 795.482 379.274C794.394 376.842 793.85 374.25 793.85 371.498V351.626H787.226V335.498H793.85V318.986H809.69V335.498ZM859.859 375.914C862.419 375.914 864.723 375.082 866.771 373.418C868.819 371.754 870.323 369.578 871.283 366.89L886.643 368.426C886.067 371.434 884.979 374.282 883.379 376.97C881.843 379.658 879.891 382.026 877.523 384.074C875.219 386.122 872.563 387.754 869.555 388.97C866.547 390.122 863.315 390.698 859.859 390.698C856.339 390.698 852.915 389.994 849.587 388.586C846.323 387.178 843.411 385.258 840.851 382.826C838.355 380.33 836.339 377.418 834.803 374.09C833.331 370.698 832.595 367.05 832.595 363.146C832.595 359.562 833.267 356.138 834.611 352.874C836.019 349.546 837.939 346.602 840.371 344.042C842.803 341.482 845.651 339.434 848.915 337.898C852.179 336.298 855.699 335.434 859.475 335.306C862.995 335.242 866.419 335.85 869.747 337.13C873.075 338.41 875.987 340.33 878.483 342.89C881.043 345.386 883.027 348.49 884.435 352.202C885.907 355.914 886.547 360.138 886.355 364.874H848.051C848.243 366.282 848.659 367.658 849.299 369.002C850.003 370.346 850.867 371.53 851.891 372.554C852.915 373.578 854.099 374.41 855.443 375.05C856.851 375.626 858.323 375.914 859.859 375.914ZM859.859 350.474C857.875 350.474 856.051 350.954 854.387 351.914C852.787 352.874 851.379 354.186 850.163 355.85H869.555C868.659 354.25 867.283 352.97 865.427 352.01C863.635 350.986 861.779 350.474 859.859 350.474ZM957.969 335.594H973.905V367.946C973.905 372.938 972.721 377.162 970.353 380.618C967.985 384.01 965.009 386.602 961.425 388.394C957.905 390.122 954.065 391.018 949.905 391.082C945.809 391.146 941.969 390.346 938.385 388.682C934.865 387.018 931.921 384.49 929.553 381.098C927.185 377.642 926.001 373.258 926.001 367.946V335.594H941.937V367.946C941.937 369.674 942.321 371.114 943.089 372.266C943.921 373.418 944.913 374.282 946.065 374.858C947.281 375.434 948.561 375.722 949.905 375.722C951.313 375.722 952.593 375.434 953.745 374.858C954.961 374.282 955.953 373.418 956.721 372.266C957.553 371.114 957.969 369.674 957.969 367.946V335.594ZM1012.13 335.018C1015.58 335.018 1018.88 335.722 1022.02 337.13C1025.22 338.474 1028.03 340.33 1030.46 342.698C1032.96 345.066 1034.91 347.85 1036.32 351.05C1037.79 354.25 1038.53 357.674 1038.53 361.322V391.082H1022.5V361.322C1022.5 359.978 1022.21 358.666 1021.63 357.386C1021.12 356.106 1020.38 354.986 1019.42 354.026C1018.53 353.066 1017.44 352.298 1016.16 351.722C1014.88 351.146 1013.54 350.858 1012.13 350.858C1009.57 350.858 1007.33 351.658 1005.41 353.258C1003.49 354.858 1002.27 356.938 1001.76 359.498V391.082H1001.57H985.633V335.882H1001.76V337.034C1003.36 336.394 1005.02 335.914 1006.75 335.594C1008.48 335.21 1010.27 335.018 1012.13 335.018ZM1088.07 318.986H1104.1V390.89H1088.07V389.162C1086.21 390.058 1084.26 390.762 1082.21 391.274C1080.16 391.786 1078.02 392.042 1075.78 392.042C1072.2 392.042 1068.71 391.338 1065.32 389.93C1061.92 388.458 1058.92 386.474 1056.29 383.978C1053.73 381.418 1051.65 378.442 1050.05 375.05C1048.52 371.594 1047.75 367.882 1047.75 363.914C1047.75 360.202 1048.48 356.682 1049.96 353.354C1051.43 349.962 1053.41 346.986 1055.91 344.426C1058.47 341.866 1061.44 339.818 1064.84 338.282C1068.23 336.746 1071.88 335.978 1075.78 335.978C1078.02 335.978 1080.16 336.234 1082.21 336.746C1084.26 337.258 1086.21 337.962 1088.07 338.858V318.986ZM1075.78 376.106C1077.38 376.106 1078.92 375.786 1080.39 375.146C1081.86 374.506 1083.14 373.642 1084.23 372.554C1085.32 371.466 1086.18 370.186 1086.82 368.714C1087.52 367.242 1087.88 365.642 1087.88 363.914C1087.88 362.314 1087.56 360.81 1086.92 359.402C1086.28 357.93 1085.41 356.65 1084.32 355.562C1083.24 354.474 1081.96 353.61 1080.48 352.97C1079.01 352.266 1077.44 351.914 1075.78 351.914C1074.18 351.914 1072.64 352.234 1071.17 352.874C1069.76 353.45 1068.48 354.282 1067.33 355.37C1066.24 356.458 1065.35 357.738 1064.64 359.21C1064 360.682 1063.68 362.25 1063.68 363.914C1063.68 365.514 1063.97 367.05 1064.55 368.522C1065.19 369.994 1066.05 371.306 1067.14 372.458C1068.23 373.546 1069.51 374.442 1070.98 375.146C1072.45 375.786 1074.05 376.106 1075.78 376.106ZM1141.2 375.914C1143.76 375.914 1146.07 375.082 1148.11 373.418C1150.16 371.754 1151.67 369.578 1152.63 366.89L1167.99 368.426C1167.41 371.434 1166.32 374.282 1164.72 376.97C1163.19 379.658 1161.23 382.026 1158.87 384.074C1156.56 386.122 1153.91 387.754 1150.9 388.97C1147.89 390.122 1144.66 390.698 1141.2 390.698C1137.68 390.698 1134.26 389.994 1130.93 388.586C1127.67 387.178 1124.75 385.258 1122.19 382.826C1119.7 380.33 1117.68 377.418 1116.15 374.09C1114.67 370.698 1113.94 367.05 1113.94 363.146C1113.94 359.562 1114.61 356.138 1115.95 352.874C1117.36 349.546 1119.28 346.602 1121.71 344.042C1124.15 341.482 1126.99 339.434 1130.26 337.898C1133.52 336.298 1137.04 335.434 1140.82 335.306C1144.34 335.242 1147.76 335.85 1151.09 337.13C1154.42 338.41 1157.33 340.33 1159.83 342.89C1162.39 345.386 1164.37 348.49 1165.78 352.202C1167.25 355.914 1167.89 360.138 1167.7 364.874H1129.39C1129.59 366.282 1130 367.658 1130.64 369.002C1131.35 370.346 1132.21 371.53 1133.23 372.554C1134.26 373.578 1135.44 374.41 1136.79 375.05C1138.19 375.626 1139.67 375.914 1141.2 375.914ZM1141.2 350.474C1139.22 350.474 1137.39 350.954 1135.73 351.914C1134.13 352.874 1132.72 354.186 1131.51 355.85H1150.9C1150 354.25 1148.63 352.97 1146.77 352.01C1144.98 350.986 1143.12 350.474 1141.2 350.474ZM1194.02 337.034C1197.99 335.434 1202.05 334.794 1206.21 335.114C1210.43 335.434 1214.47 336.714 1218.31 338.954L1211.87 354.122L1211.68 353.93C1209.76 351.882 1207.3 350.858 1204.29 350.858C1202.75 350.858 1201.35 351.146 1200.07 351.722C1198.85 352.234 1197.76 352.97 1196.8 353.93C1195.91 354.89 1195.2 356.042 1194.69 357.386C1194.24 358.666 1194.02 360.042 1194.02 361.514V391.082H1193.83H1177.89V335.882H1194.02V337.034ZM658.026 472.474C656.362 472.474 654.794 472.826 653.322 473.53C651.85 474.17 650.57 475.066 649.482 476.218C648.394 477.37 647.53 478.714 646.89 480.25C646.314 481.786 646.026 483.418 646.026 485.146C646.026 486.746 646.314 488.314 646.89 489.85C647.53 491.386 648.362 492.762 649.386 493.978C650.474 495.13 651.754 496.09 653.226 496.858C654.698 497.562 656.298 497.914 658.026 497.914C660.65 497.914 662.986 497.082 665.034 495.418C667.082 493.754 668.49 491.578 669.258 488.89L684.81 490.426C684.17 493.434 683.05 496.282 681.45 498.97C679.914 501.658 677.962 504.026 675.594 506.074C673.29 508.058 670.634 509.658 667.626 510.874C664.682 512.09 661.482 512.698 658.026 512.698C654.506 512.698 651.082 511.994 647.754 510.586C644.49 509.178 641.578 507.258 639.018 504.826C636.458 502.33 634.41 499.418 632.874 496.09C631.338 492.698 630.57 489.05 630.57 485.146C630.57 481.498 631.274 478.042 632.682 474.778C634.09 471.45 636.042 468.506 638.538 465.946C641.034 463.386 643.946 461.37 647.274 459.898C650.602 458.362 654.186 457.594 658.026 457.594C661.162 457.594 664.17 458.138 667.05 459.226C669.93 460.25 672.522 461.754 674.826 463.738C677.194 465.658 679.21 467.994 680.874 470.746C682.602 473.434 683.914 476.442 684.81 479.77L669.258 481.402C668.554 478.97 667.178 476.89 665.13 475.162C663.146 473.37 660.778 472.474 658.026 472.474ZM720.245 457.594C723.765 457.594 727.157 458.298 730.421 459.706C733.749 461.114 736.693 463.066 739.253 465.562C741.813 467.994 743.829 470.906 745.301 474.298C746.837 477.626 747.605 481.242 747.605 485.146C747.605 488.794 746.901 492.282 745.493 495.61C744.085 498.874 742.133 501.786 739.637 504.346C737.205 506.906 734.325 508.954 730.997 510.49C727.669 511.962 724.085 512.698 720.245 512.698C716.725 512.698 713.301 511.994 709.973 510.586C706.709 509.178 703.797 507.258 701.237 504.826C698.741 502.33 696.725 499.418 695.189 496.09C693.717 492.698 692.98 489.05 692.98 485.146C692.98 481.626 693.653 478.234 694.997 474.97C696.405 471.642 698.325 468.698 700.757 466.138C703.189 463.578 706.069 461.53 709.397 459.994C712.725 458.394 716.341 457.594 720.245 457.594ZM720.245 497.914C721.909 497.914 723.445 497.562 724.853 496.858C726.325 496.154 727.605 495.226 728.693 494.074C729.781 492.858 730.645 491.482 731.285 489.946C731.925 488.41 732.245 486.81 732.245 485.146C732.245 483.546 731.925 481.978 731.285 480.442C730.709 478.906 729.877 477.562 728.789 476.41C727.765 475.194 726.517 474.234 725.045 473.53C723.573 472.826 721.973 472.474 720.245 472.474C718.581 472.474 717.013 472.826 715.541 473.53C714.133 474.234 712.885 475.162 711.797 476.314C710.709 477.466 709.845 478.81 709.205 480.346C708.629 481.882 708.341 483.482 708.341 485.146C708.341 486.746 708.629 488.314 709.205 489.85C709.781 491.386 710.581 492.762 711.605 493.978C712.693 495.13 713.973 496.09 715.445 496.858C716.917 497.562 718.517 497.914 720.245 497.914ZM782.91 457.018C786.366 457.018 789.662 457.722 792.798 459.13C795.998 460.474 798.814 462.33 801.246 464.698C803.742 467.066 805.694 469.85 807.102 473.05C808.574 476.25 809.31 479.674 809.31 483.322V513.082H793.278V483.322C793.278 481.978 792.99 480.666 792.414 479.386C791.902 478.106 791.166 476.986 790.206 476.026C789.31 475.066 788.222 474.298 786.942 473.722C785.662 473.146 784.318 472.858 782.91 472.858C780.35 472.858 778.11 473.658 776.19 475.258C774.27 476.858 773.054 478.938 772.542 481.498V513.082H772.35H756.414V457.882H772.542V459.034C774.142 458.394 775.806 457.914 777.534 457.594C779.262 457.21 781.054 457.018 782.91 457.018ZM855.298 479.962C857.474 480.474 859.426 481.306 861.154 482.458C862.946 483.61 864.418 484.986 865.57 486.586C866.722 488.122 867.554 489.85 868.066 491.77C868.578 493.69 868.642 495.674 868.258 497.722C867.874 500.154 866.978 502.362 865.57 504.346C864.162 506.266 862.434 507.93 860.386 509.338C858.402 510.682 856.162 511.738 853.666 512.506C851.234 513.274 848.738 513.69 846.178 513.754C843.362 513.818 840.802 513.626 838.498 513.178C836.194 512.73 834.114 512.122 832.258 511.354C830.466 510.586 828.866 509.69 827.458 508.666C826.114 507.642 824.962 506.586 824.002 505.498C821.634 502.938 819.938 500.026 818.914 496.762L834.466 492.826C834.85 494.042 835.554 495.13 836.578 496.09C837.41 496.922 838.594 497.69 840.13 498.394C841.666 499.034 843.714 499.322 846.274 499.258C847.81 499.194 849.154 498.938 850.306 498.49C851.458 497.978 852.162 497.402 852.418 496.762C852.738 496.122 852.514 495.482 851.746 494.842C850.978 494.138 849.41 493.562 847.042 493.114C845.378 492.794 843.714 492.57 842.05 492.442C840.45 492.314 838.818 492.09 837.154 491.77C835.234 491.514 833.346 491.002 831.49 490.234C829.634 489.466 827.938 488.506 826.402 487.354C824.866 486.138 823.586 484.698 822.562 483.034C821.538 481.306 820.93 479.354 820.738 477.178C820.482 474.234 821.09 471.386 822.562 468.634C824.034 465.818 826.178 463.418 828.994 461.434C831.49 459.706 834.498 458.49 838.018 457.786C841.538 457.018 845.09 456.794 848.674 457.114C852.322 457.434 855.746 458.33 858.946 459.802C862.146 461.21 864.642 463.226 866.434 465.85L852.706 473.434C852.258 472.474 851.266 471.738 849.73 471.226C848.258 470.714 846.69 470.458 845.026 470.458C843.362 470.394 841.762 470.618 840.226 471.13C838.754 471.578 837.794 472.346 837.346 473.434C837.026 474.33 837.314 475.258 838.21 476.218C839.106 477.178 840.994 477.786 843.874 478.042C845.602 478.17 847.458 478.394 849.442 478.714C851.49 479.034 853.442 479.45 855.298 479.962ZM900.065 457.498H913.793V473.626H900.065V493.498C900.065 494.522 900.449 495.45 901.217 496.282C901.985 497.05 902.913 497.434 904.001 497.434H913.697V513.37H904.001C901.377 513.37 898.881 512.858 896.513 511.834C894.145 510.746 892.033 509.306 890.177 507.514C888.385 505.722 886.945 503.642 885.857 501.274C884.769 498.842 884.225 496.25 884.225 493.498V473.626H877.601V457.498H884.225V440.986H900.065V457.498ZM939.674 459.034C943.642 457.434 947.706 456.794 951.866 457.114C956.09 457.434 960.122 458.714 963.962 460.954L957.53 476.122L957.338 475.93C955.418 473.882 952.954 472.858 949.946 472.858C948.41 472.858 947.002 473.146 945.722 473.722C944.506 474.234 943.418 474.97 942.458 475.93C941.562 476.89 940.858 478.042 940.346 479.386C939.898 480.666 939.674 482.042 939.674 483.514V513.082H939.482H923.546V457.882H939.674V459.034ZM1005.31 457.594H1021.25V489.946C1021.25 494.938 1020.06 499.162 1017.7 502.618C1015.33 506.01 1012.35 508.602 1008.77 510.394C1005.25 512.122 1001.41 513.018 997.249 513.082C993.153 513.146 989.313 512.346 985.729 510.682C982.209 509.018 979.265 506.49 976.897 503.098C974.529 499.642 973.345 495.258 973.345 489.946V457.594H989.281V489.946C989.281 491.674 989.665 493.114 990.433 494.266C991.265 495.418 992.257 496.282 993.409 496.858C994.625 497.434 995.905 497.722 997.249 497.722C998.657 497.722 999.937 497.434 1001.09 496.858C1002.3 496.282 1003.3 495.418 1004.06 494.266C1004.9 493.114 1005.31 491.674 1005.31 489.946V457.594ZM1059.09 472.474C1057.42 472.474 1055.86 472.826 1054.38 473.53C1052.91 474.17 1051.63 475.066 1050.54 476.218C1049.46 477.37 1048.59 478.714 1047.95 480.25C1047.38 481.786 1047.09 483.418 1047.09 485.146C1047.09 486.746 1047.38 488.314 1047.95 489.85C1048.59 491.386 1049.42 492.762 1050.45 493.978C1051.54 495.13 1052.82 496.09 1054.29 496.858C1055.76 497.562 1057.36 497.914 1059.09 497.914C1061.71 497.914 1064.05 497.082 1066.1 495.418C1068.14 493.754 1069.55 491.578 1070.32 488.89L1085.87 490.426C1085.23 493.434 1084.11 496.282 1082.51 498.97C1080.98 501.658 1079.02 504.026 1076.66 506.074C1074.35 508.058 1071.7 509.658 1068.69 510.874C1065.74 512.09 1062.54 512.698 1059.09 512.698C1055.57 512.698 1052.14 511.994 1048.82 510.586C1045.55 509.178 1042.64 507.258 1040.08 504.826C1037.52 502.33 1035.47 499.418 1033.94 496.09C1032.4 492.698 1031.63 489.05 1031.63 485.146C1031.63 481.498 1032.34 478.042 1033.74 474.778C1035.15 471.45 1037.1 468.506 1039.6 465.946C1042.1 463.386 1045.01 461.37 1048.34 459.898C1051.66 458.362 1055.25 457.594 1059.09 457.594C1062.22 457.594 1065.23 458.138 1068.11 459.226C1070.99 460.25 1073.58 461.754 1075.89 463.738C1078.26 465.658 1080.27 467.994 1081.94 470.746C1083.66 473.434 1084.98 476.442 1085.87 479.77L1070.32 481.402C1069.62 478.97 1068.24 476.89 1066.19 475.162C1064.21 473.37 1061.84 472.474 1059.09 472.474ZM1117.66 457.498H1131.39V473.626H1117.66V493.498C1117.66 494.522 1118.04 495.45 1118.81 496.282C1119.58 497.05 1120.51 497.434 1121.6 497.434H1131.29V513.37H1121.6C1118.97 513.37 1116.48 512.858 1114.11 511.834C1111.74 510.746 1109.63 509.306 1107.77 507.514C1105.98 505.722 1104.54 503.642 1103.45 501.274C1102.36 498.842 1101.82 496.25 1101.82 493.498V473.626H1095.2V457.498H1101.82V440.986H1117.66V457.498ZM1141.24 457.69H1157.27V512.89H1141.24V457.69ZM1157.27 440.986V453.85H1141.24V440.986H1157.27ZM1193.4 457.594C1196.92 457.594 1200.31 458.298 1203.58 459.706C1206.9 461.114 1209.85 463.066 1212.41 465.562C1214.97 467.994 1216.98 470.906 1218.46 474.298C1219.99 477.626 1220.76 481.242 1220.76 485.146C1220.76 488.794 1220.06 492.282 1218.65 495.61C1217.24 498.874 1215.29 501.786 1212.79 504.346C1210.36 506.906 1207.48 508.954 1204.15 510.49C1200.82 511.962 1197.24 512.698 1193.4 512.698C1189.88 512.698 1186.46 511.994 1183.13 510.586C1179.86 509.178 1176.95 507.258 1174.39 504.826C1171.9 502.33 1169.88 499.418 1168.34 496.09C1166.87 492.698 1166.14 489.05 1166.14 485.146C1166.14 481.626 1166.81 478.234 1168.15 474.97C1169.56 471.642 1171.48 468.698 1173.91 466.138C1176.34 463.578 1179.22 461.53 1182.55 459.994C1185.88 458.394 1189.5 457.594 1193.4 457.594ZM1193.4 497.914C1195.06 497.914 1196.6 497.562 1198.01 496.858C1199.48 496.154 1200.76 495.226 1201.85 494.074C1202.94 492.858 1203.8 491.482 1204.44 489.946C1205.08 488.41 1205.4 486.81 1205.4 485.146C1205.4 483.546 1205.08 481.978 1204.44 480.442C1203.86 478.906 1203.03 477.562 1201.94 476.41C1200.92 475.194 1199.67 474.234 1198.2 473.53C1196.73 472.826 1195.13 472.474 1193.4 472.474C1191.74 472.474 1190.17 472.826 1188.7 473.53C1187.29 474.234 1186.04 475.162 1184.95 476.314C1183.86 477.466 1183 478.81 1182.36 480.346C1181.78 481.882 1181.5 483.482 1181.5 485.146C1181.5 486.746 1181.78 488.314 1182.36 489.85C1182.94 491.386 1183.74 492.762 1184.76 493.978C1185.85 495.13 1187.13 496.09 1188.6 496.858C1190.07 497.562 1191.67 497.914 1193.4 497.914ZM1256.07 457.018C1259.52 457.018 1262.82 457.722 1265.95 459.13C1269.15 460.474 1271.97 462.33 1274.4 464.698C1276.9 467.066 1278.85 469.85 1280.26 473.05C1281.73 476.25 1282.47 479.674 1282.47 483.322V513.082H1266.43V483.322C1266.43 481.978 1266.15 480.666 1265.57 479.386C1265.06 478.106 1264.32 476.986 1263.36 476.026C1262.47 475.066 1261.38 474.298 1260.1 473.722C1258.82 473.146 1257.47 472.858 1256.07 472.858C1253.51 472.858 1251.27 473.658 1249.35 475.258C1247.43 476.858 1246.21 478.938 1245.7 481.498V513.082H1245.51H1229.57V457.882H1245.7V459.034C1247.3 458.394 1248.96 457.914 1250.69 457.594C1252.42 457.21 1254.21 457.018 1256.07 457.018Z" fill="#4B4646"/>
</g>
<defs>
<filter id="filter0_d_179_30" x="623.77" y="313.186" width="671.496" height="214.464" filterUnits="userSpaceOnUse" color-interpolation-filters="sRGB">
<feFlood flood-opacity="0" result="BackgroundImageFix"/>
<feColorMatrix in="SourceAlpha" type="matrix" values="0 0 0 0 0 0 0 0 0 0 0 0 0 0 0 0 0 0 127 0" result="hardAlpha"/>
<feOffset dx="3" dy="4"/>
<feGaussianBlur stdDeviation="4.9"/>
<feComposite in2="hardAlpha" operator="out"/>
<feColorMatrix type="matrix" values="0 0 0 0 0 0 0 0 0 0 0 0 0 0 0 0 0 0 0.25 0"/>
<feBlend mode="normal" in2="BackgroundImageFix" result="effect1_dropShadow_179_30"/>
<feBlend mode="normal" in="SourceGraphic" in2="effect1_dropShadow_179_30" result="shape"/>
</filter>
<linearGradient id="paint0_linear_179_30" x1="956.5" y1="1449.72" x2="956.5" y2="-404.721" gradientUnits="userSpaceOnUse">
<stop offset="0.144112" stop-color="#E49351"/>
<stop offset="1" stop-color="#F99EE1"/>
</linearGradient>
<linearGradient id="paint1_linear_179_30" x1="949.5" y1="13.526" x2="949.5" y2="1806.47" gradientUnits="userSpaceOnUse">
<stop stop-color="#A20050" stop-opacity="0.929412"/>
<stop offset="0.741652" stop-color="#FFA9A0"/>
</linearGradient>
</defs>
</svg>
