<svg width="1920" height="911" viewBox="0 0 1920 911" fill="none" xmlns="http://www.w3.org/2000/svg">
<g filter="url(#filter0_dn_116_10)">
<path d="M1920 903H0V0H1920V903ZM1613.16 354.435C1605 352.311 1596.67 351.414 1588.17 351.74C1579.68 351.904 1571.35 353.21 1563.18 355.66C1555.02 358.11 1547.75 361.704 1541.38 366.44C1535.17 371.014 1530.11 376.812 1526.19 383.835C1522.43 390.858 1520.55 398.943 1520.55 408.09C1520.55 419.85 1523.9 430.222 1530.6 439.205C1537.3 448.025 1546.69 454.068 1558.77 457.335C1565.47 459.458 1572.41 460.765 1579.6 461.255C1586.79 461.745 1594.05 462.644 1601.4 463.95C1609.57 465.094 1615.37 467.543 1618.8 471.3C1622.23 474.893 1623.7 478.813 1623.21 483.06C1622.72 487.143 1620.51 490.982 1616.59 494.575C1612.67 498.005 1607.45 500.129 1600.91 500.945C1596.5 501.599 1592.01 501.761 1587.44 501.435C1583.03 500.945 1578.95 499.965 1575.19 498.495C1571.43 496.862 1568.25 494.657 1565.63 491.88C1563.18 489.103 1561.88 485.755 1561.71 481.835L1523 485.02C1523.66 493.84 1526.11 501.598 1530.35 508.295C1534.76 514.828 1540.24 520.3 1546.77 524.71C1553.47 528.957 1560.9 532.141 1569.06 534.265C1577.39 536.225 1585.81 537.123 1594.3 536.96C1602.96 536.797 1611.29 535.49 1619.29 533.04C1627.46 530.59 1634.64 527.078 1640.85 522.505C1647.22 517.768 1652.28 511.97 1656.04 505.11C1659.96 498.087 1661.92 490.002 1661.92 480.855C1661.92 472.689 1660.45 465.502 1657.51 459.295C1654.57 452.925 1650.4 447.535 1645.01 443.125C1639.79 438.552 1633.58 434.958 1626.39 432.345C1619.37 429.568 1611.69 427.69 1603.36 426.71C1600.59 426.383 1597.73 426.22 1594.79 426.22C1592.01 426.22 1589.07 426.057 1585.97 425.73C1578.95 425.077 1573.39 423.689 1569.31 421.565C1565.23 419.279 1562.45 416.746 1560.98 413.97C1559.51 411.03 1559.1 408.008 1559.75 404.905C1560.57 401.639 1562.29 398.698 1564.9 396.085C1567.68 393.472 1571.19 391.348 1575.43 389.715C1579.84 387.918 1584.83 387.02 1590.38 387.02C1594.14 387.02 1597.73 387.428 1601.16 388.245C1604.75 389.062 1607.94 390.368 1610.71 392.165C1613.65 393.798 1616.02 395.922 1617.82 398.535C1619.62 400.985 1620.6 403.844 1620.76 407.11L1659.71 403.435C1659.06 394.615 1656.53 386.938 1652.12 380.405C1647.87 373.872 1642.4 368.482 1635.7 364.235C1629.01 359.825 1621.49 356.558 1613.16 354.435ZM527.856 351.25V535.735H567.302V491.635H569.996L606.256 535.735H655.991L616.546 487.715C626.836 483.958 635.248 477.997 641.781 469.83C648.315 461.663 652.888 452.516 655.501 442.39C658.114 432.263 658.686 421.81 657.216 411.03C655.909 400.25 652.643 390.45 647.416 381.63C642.353 372.81 635.248 365.542 626.102 359.825C616.955 354.109 605.93 351.25 593.026 351.25H527.856ZM373.78 351.25V535H415.43V491.145H441.4C452.834 491.145 462.797 489.185 471.29 485.265C479.783 481.181 486.807 475.873 492.36 469.34C498.077 462.807 502.323 455.375 505.1 447.045C508.04 438.552 509.51 429.977 509.51 421.32C509.51 412.5 508.04 403.925 505.1 395.595C502.323 387.102 498.077 379.588 492.36 373.055C486.807 366.521 479.783 361.295 471.29 357.375C462.797 353.292 452.834 351.25 441.4 351.25H373.78ZM1022.68 351.25V534.755H1136.61V493.84H1063.6V463.46H1122.89V422.3H1063.6V392.165H1136.61V351.25H1022.68ZM1355.61 351.25V392.165H1408.53V534.755H1449.44V392.165H1502.12V351.25H1355.61ZM956.76 351.74V458.07C956.76 466.564 955.208 473.342 952.104 478.405C949.165 483.468 945.245 487.225 940.345 489.675C935.445 492.125 929.809 493.595 923.439 494.085C917.233 494.412 910.781 494.248 904.084 493.595C897.551 492.941 891.018 492.044 884.484 490.9C878.114 489.757 872.397 488.777 867.334 487.96V528.875C876.481 530.672 886.036 532.142 895.999 533.285C906.126 534.428 915.926 534.755 925.399 534.265C935.036 533.611 944.183 531.979 952.84 529.365C961.496 526.589 969.091 522.26 975.624 516.38C982.321 510.5 987.548 502.823 991.305 493.35C995.225 483.876 997.266 472.117 997.43 458.07V351.74H956.76ZM763.791 350.76C751.541 350.76 740.108 353.21 729.491 358.11C718.875 362.847 709.647 369.544 701.807 378.2C693.967 386.53 687.842 396.167 683.432 407.11C679.022 418.054 676.816 429.895 676.816 442.635C676.816 455.048 679.022 466.808 683.432 477.915C687.842 488.858 693.967 498.495 701.807 506.825C709.647 515.318 718.875 522.015 729.491 526.915C740.108 531.815 751.541 534.265 763.791 534.265C776.041 534.265 787.393 531.815 797.847 526.915C808.463 522.015 817.691 515.318 825.531 506.825C833.371 498.495 839.496 488.858 843.906 477.915C848.48 466.808 850.767 455.048 850.767 442.635C850.767 429.895 848.479 418.054 843.906 407.11C839.496 396.167 833.371 386.53 825.531 378.2C817.691 369.544 808.463 362.847 797.847 358.11C787.393 353.21 776.041 350.76 763.791 350.76ZM1250.12 350.76C1237.38 350.76 1225.54 353.292 1214.59 358.355C1203.65 363.419 1194.09 370.197 1185.93 378.69C1177.92 387.184 1171.64 396.983 1167.06 408.09C1162.49 419.196 1160.2 430.712 1160.2 442.635C1160.2 455.211 1162.65 467.053 1167.55 478.16C1172.45 489.267 1178.99 498.985 1187.15 507.315C1195.32 515.645 1204.79 522.26 1215.57 527.16C1226.52 531.897 1238.03 534.265 1250.12 534.265C1260.08 534.265 1269.55 532.632 1278.54 529.365C1287.68 526.099 1296.02 521.688 1303.53 516.135C1311.04 510.418 1317.49 503.721 1322.88 496.045C1328.44 488.368 1332.68 480.12 1335.62 471.3L1293.24 465.42C1288.99 473.913 1283.03 480.773 1275.35 486C1267.84 491.227 1259.43 493.84 1250.12 493.84C1243.26 493.84 1236.89 492.37 1231.01 489.43C1225.13 486.49 1219.98 482.652 1215.57 477.915C1211.33 473.015 1207.98 467.543 1205.53 461.5C1203.24 455.293 1202.1 449.005 1202.1 442.635C1202.1 435.938 1203.32 429.487 1205.77 423.28C1208.39 417.074 1211.82 411.602 1216.06 406.865C1220.47 402.129 1225.54 398.371 1231.25 395.595C1237.13 392.655 1243.42 391.185 1250.12 391.185C1254.85 391.185 1259.43 391.92 1263.84 393.39C1268.25 394.86 1272.25 396.901 1275.84 399.515C1279.6 401.965 1282.95 404.905 1285.89 408.335C1288.83 411.765 1291.28 415.44 1293.24 419.36L1335.62 413.48C1332.19 404.17 1327.54 395.677 1321.66 388C1315.94 380.16 1309.41 373.545 1302.06 368.155C1294.71 362.602 1286.62 358.355 1277.8 355.415C1268.98 352.312 1259.75 350.76 1250.12 350.76ZM763.791 391.185C770.161 391.185 776.042 392.492 781.432 395.105C786.985 397.719 791.884 401.23 796.131 405.64C800.378 410.376 803.727 415.93 806.177 422.3C808.79 428.506 810.097 435.285 810.097 442.635C810.097 449.821 808.79 456.6 806.177 462.97C803.727 469.176 800.378 474.648 796.131 479.385C791.884 483.795 786.985 487.307 781.432 489.92C776.042 492.533 770.161 493.84 763.791 493.84C757.421 493.84 751.459 492.533 745.906 489.92C740.516 487.307 735.698 483.795 731.451 479.385C727.041 474.648 723.529 469.176 720.916 462.97C718.466 456.6 717.241 449.821 717.241 442.635C717.241 435.285 718.466 428.506 720.916 422.3C723.529 415.93 727.041 410.376 731.451 405.64C735.698 401.23 740.516 397.719 745.906 395.105C751.459 392.492 757.421 391.185 763.791 391.185ZM593.026 390.695C598.743 390.695 603.561 392.246 607.481 395.35C611.401 398.29 614.26 402.129 616.057 406.865C618.016 411.438 618.996 416.42 618.996 421.81C618.996 427.036 618.017 432.018 616.057 436.755C614.26 441.328 611.401 445.166 607.481 448.27C603.561 451.21 598.743 452.68 593.026 452.68H567.302V390.695H593.026ZM441.4 390.45C447.444 390.45 452.507 392.002 456.59 395.105C460.836 398.045 463.94 401.802 465.9 406.375C468.024 410.948 469.003 415.93 468.84 421.32C468.84 426.71 467.86 431.692 465.9 436.265C463.94 440.838 460.837 444.677 456.59 447.78C452.507 450.72 447.443 452.19 441.4 452.19H415.43V390.45H441.4Z" fill="url(#paint0_radial_116_10)"/>
</g>
<defs>
<filter id="filter0_dn_116_10" x="-12" y="0" width="1932" height="911" filterUnits="userSpaceOnUse" color-interpolation-filters="sRGB">
<feFlood flood-opacity="0" result="BackgroundImageFix"/>
<feColorMatrix in="SourceAlpha" type="matrix" values="0 0 0 0 0 0 0 0 0 0 0 0 0 0 0 0 0 0 127 0" result="hardAlpha"/>
<feOffset dx="-8" dy="4"/>
<feGaussianBlur stdDeviation="2"/>
<feComposite in2="hardAlpha" operator="out"/>
<feColorMatrix type="matrix" values="0 0 0 0 0 0 0 0 0 0 0 0 0 0 0 0 0 0 0.25 0"/>
<feBlend mode="normal" in2="BackgroundImageFix" result="effect1_dropShadow_116_10"/>
<feBlend mode="normal" in="SourceGraphic" in2="BackgroundImageFix" result="shape"/>
<feTurbulence type="fractalNoise" baseFrequency="2 2" stitchTiles="stitch" numOctaves="3" result="noise" seed="6957" />
<feColorMatrix in="noise" type="luminanceToAlpha" result="alphaNoise" />
<feComponentTransfer in="alphaNoise" result="coloredNoise1">
<feFuncA type="discrete" tableValues="0 0 0 0 0 0 0 0 0 1 1 1 1 1 1 1 1 1 1 1 1 1 1 1 1 1 1 1 1 1 1 1 1 1 1 1 1 1 1 1 0 0 0 0 0 0 0 0 0 0 0 0 0 0 0 0 0 0 0 0 0 0 0 0 0 0 0 0 0 0 0 0 0 0 0 0 0 0 0 0 0 0 0 0 0 0 0 0 0 0 0 0 0 0 0 0 0 0 0 0 "/>
</feComponentTransfer>
<feComposite operator="in" in2="shape" in="coloredNoise1" result="noise1Clipped" />
<feFlood flood-color="rgba(0, 0, 0, 0.15)" result="color1Flood" />
<feComposite operator="in" in2="noise1Clipped" in="color1Flood" result="color1" />
<feMerge result="effect2_noise_116_10">
<feMergeNode in="shape" />
<feMergeNode in="color1" />
</feMerge>
<feBlend mode="normal" in="effect2_noise_116_10" in2="effect1_dropShadow_116_10" result="effect2_noise_116_10"/>
</filter>
<radialGradient id="paint0_radial_116_10" cx="0" cy="0" r="1" gradientUnits="userSpaceOnUse" gradientTransform="translate(960 451.5) scale(1513.5 298.774)">
<stop offset="0.221154" stop-color="#304C77"/>
<stop offset="1" stop-color="#59503C"/>
</radialGradient>
</defs>
</svg>
