<svg width="1289" height="188" viewBox="0 0 1289 188" fill="none" xmlns="http://www.w3.org/2000/svg">
<g filter="url(#filter0_i_150_201)">
<path d="M0.780001 185V1.24999H68.4C79.8333 1.24999 89.7967 3.29165 98.29 7.37499C106.783 11.295 113.807 16.5217 119.36 23.055C125.077 29.5883 129.323 37.1017 132.1 45.595C135.04 53.925 136.51 62.5 136.51 71.32C136.51 79.9767 135.04 88.5517 132.1 97.045C129.323 105.375 125.077 112.807 119.36 119.34C113.807 125.873 106.783 131.182 98.29 135.265C89.7967 139.185 79.8333 141.145 68.4 141.145H42.43V185H0.780001ZM42.43 40.45V102.19H68.4C74.4433 102.19 79.5067 100.72 83.59 97.78C87.8367 94.6767 90.94 90.8383 92.9 86.265C94.86 81.6917 95.84 76.71 95.84 71.32C96.0033 65.93 95.0233 60.9483 92.9 56.375C90.94 51.8017 87.8367 48.045 83.59 45.105C79.5067 42.0017 74.4433 40.45 68.4 40.45H42.43ZM154.856 185.735V1.24999H220.026C232.93 1.24999 243.955 4.10832 253.101 9.82499C262.248 15.5417 269.353 22.81 274.416 31.63C279.643 40.45 282.91 50.25 284.216 61.03C285.686 71.81 285.115 82.2633 282.501 92.39C279.888 102.517 275.315 111.663 268.781 119.83C262.248 127.997 253.836 133.958 243.546 137.715L282.991 185.735H233.256L196.996 141.635H194.301V185.735H154.856ZM194.301 40.695V102.68H220.026C225.743 102.68 230.561 101.21 234.481 98.27C238.401 95.1667 241.26 91.3283 243.056 86.755C245.016 82.0183 245.996 77.0367 245.996 71.81C245.996 66.42 245.016 61.4383 243.056 56.865C241.26 52.1283 238.401 48.29 234.481 45.35C230.561 42.2467 225.743 40.695 220.026 40.695H194.301ZM390.791 0.759992C403.041 0.759992 414.393 3.20999 424.846 8.10998C435.463 12.8467 444.691 19.5433 452.531 28.2C460.371 36.53 466.496 46.1667 470.906 57.11C475.48 68.0533 477.766 79.895 477.766 92.635C477.766 105.048 475.48 116.808 470.906 127.915C466.496 138.858 460.371 148.495 452.531 156.825C444.691 165.318 435.463 172.015 424.846 176.915C414.393 181.815 403.041 184.265 390.791 184.265C378.541 184.265 367.108 181.815 356.491 176.915C345.875 172.015 336.646 165.318 328.806 156.825C320.966 148.495 314.841 138.858 310.431 127.915C306.021 116.808 303.816 105.048 303.816 92.635C303.816 79.895 306.021 68.0533 310.431 57.11C314.841 46.1667 320.966 36.53 328.806 28.2C336.646 19.5433 345.875 12.8467 356.491 8.10998C367.108 3.20999 378.541 0.759992 390.791 0.759992ZM423.131 129.385C427.378 124.648 430.726 119.177 433.176 112.97C435.79 106.6 437.096 99.8217 437.096 92.635C437.096 85.285 435.79 78.5067 433.176 72.3C430.726 65.93 427.378 60.3767 423.131 55.64C418.885 51.23 413.985 47.7183 408.431 45.105C403.041 42.4917 397.161 41.185 390.791 41.185C384.421 41.185 378.46 42.4917 372.906 45.105C367.516 47.7183 362.698 51.23 358.451 55.64C354.041 60.3767 350.53 65.93 347.916 72.3C345.466 78.5067 344.241 85.285 344.241 92.635C344.241 99.8217 345.466 106.6 347.916 112.97C350.53 119.177 354.041 124.648 358.451 129.385C362.698 133.795 367.516 137.307 372.906 139.92C378.46 142.533 384.421 143.84 390.791 143.84C397.161 143.84 403.041 142.533 408.431 139.92C413.985 137.307 418.885 133.795 423.131 129.385ZM583.759 1.73999H624.429V108.07C624.266 122.117 622.224 133.877 618.304 143.35C614.548 152.823 609.321 160.5 602.624 166.38C596.091 172.26 588.496 176.588 579.839 179.365C571.183 181.978 562.036 183.612 552.399 184.265C542.926 184.755 533.126 184.428 522.999 183.285C513.036 182.142 503.481 180.672 494.334 178.875V137.96C499.398 138.777 505.114 139.757 511.484 140.9C518.018 142.043 524.551 142.942 531.084 143.595C537.781 144.248 544.233 144.412 550.439 144.085C556.809 143.595 562.444 142.125 567.344 139.675C572.244 137.225 576.164 133.468 579.104 128.405C582.208 123.342 583.759 116.563 583.759 108.07V1.73999ZM763.607 1.24999V42.165H690.597V72.3H749.887V113.46H690.597V143.84H763.607V184.755H649.682V1.24999H763.607ZM877.118 41.185C870.422 41.185 864.133 42.655 858.253 45.595C852.537 48.3717 847.473 52.1283 843.063 56.865C838.817 61.6017 835.387 67.0733 832.773 73.28C830.323 79.4867 829.098 85.9383 829.098 92.635C829.098 99.005 830.242 105.293 832.528 111.5C834.978 117.543 838.327 123.015 842.573 127.915C846.983 132.652 852.128 136.49 858.008 139.43C863.888 142.37 870.258 143.84 877.118 143.84C886.428 143.84 894.84 141.227 902.353 136C910.03 130.773 915.992 123.913 920.238 115.42L962.623 121.3C959.683 130.12 955.437 138.368 949.883 146.045C944.493 153.722 938.042 160.418 930.528 166.135C923.015 171.688 914.685 176.098 905.538 179.365C896.555 182.632 887.082 184.265 877.118 184.265C865.032 184.265 853.517 181.897 842.573 177.16C831.793 172.26 822.32 165.645 814.153 157.315C805.987 148.985 799.453 139.267 794.553 128.16C789.653 117.053 787.203 105.212 787.203 92.635C787.203 80.7117 789.49 69.1967 794.063 58.09C798.637 46.9833 804.925 37.1833 812.928 28.69C821.095 20.1967 830.65 13.4183 841.593 8.355C852.537 3.29166 864.378 0.759992 877.118 0.759992C886.755 0.759992 895.983 2.31166 904.803 5.41499C913.623 8.35499 921.708 12.6017 929.058 18.155C936.408 23.545 942.942 30.16 948.658 38C954.538 45.6767 959.193 54.17 962.623 63.48L920.238 69.36C918.278 65.44 915.828 61.765 912.888 58.335C909.948 54.905 906.6 51.965 902.843 49.515C899.25 46.9017 895.248 44.86 890.838 43.39C886.428 41.92 881.855 41.185 877.118 41.185ZM1129.12 1.24999V42.165H1076.44V184.755H1035.53V42.165H982.608V1.24999H1129.12ZM1288.92 130.855C1288.92 140.002 1286.96 148.087 1283.04 155.11C1279.28 161.97 1274.22 167.768 1267.85 172.505C1261.64 177.078 1254.46 180.59 1246.29 183.04C1238.29 185.49 1229.96 186.797 1221.3 186.96C1212.81 187.123 1204.39 186.225 1196.06 184.265C1187.9 182.142 1180.47 178.957 1173.77 174.71C1167.24 170.3 1161.76 164.828 1157.35 158.295C1153.11 151.598 1150.66 143.84 1150 135.02L1188.71 131.835C1188.88 135.755 1190.18 139.103 1192.63 141.88C1195.25 144.657 1198.43 146.862 1202.19 148.495C1205.95 149.965 1210.03 150.945 1214.44 151.435C1219.01 151.762 1223.5 151.598 1227.91 150.945C1234.45 150.128 1239.67 148.005 1243.59 144.575C1247.51 140.982 1249.72 137.143 1250.21 133.06C1250.7 128.813 1249.23 124.893 1245.8 121.3C1242.37 117.543 1236.57 115.093 1228.4 113.95C1221.05 112.643 1213.79 111.745 1206.6 111.255C1199.41 110.765 1192.47 109.458 1185.77 107.335C1173.69 104.068 1164.3 98.025 1157.6 89.205C1150.9 80.2217 1147.55 69.85 1147.55 58.09C1147.55 48.9433 1149.43 40.8583 1153.19 33.835C1157.11 26.8117 1162.17 21.0133 1168.38 16.44C1174.75 11.7033 1182.02 8.10999 1190.18 5.65999C1198.35 3.20999 1206.68 1.90332 1215.17 1.73999C1223.67 1.41332 1232 2.31165 1240.16 4.43499C1248.49 6.55832 1256.01 9.82499 1262.7 14.235C1269.4 18.4817 1274.87 23.8717 1279.12 30.405C1283.53 36.9383 1286.06 44.615 1286.71 53.435L1247.76 57.11C1247.6 53.8433 1246.62 50.985 1244.82 48.535C1243.02 45.9217 1240.65 43.7983 1237.71 42.165C1234.94 40.3683 1231.75 39.0617 1228.16 38.245C1224.73 37.4283 1221.14 37.02 1217.38 37.02C1211.83 37.02 1206.84 37.9183 1202.43 39.715C1198.19 41.3483 1194.68 43.4717 1191.9 46.085C1189.29 48.6983 1187.57 51.6383 1186.75 54.905C1186.1 58.0083 1186.51 61.03 1187.98 63.97C1189.45 66.7467 1192.23 69.2783 1196.31 71.565C1200.39 73.6883 1205.95 75.0767 1212.97 75.73C1216.07 76.0567 1219.01 76.22 1221.79 76.22C1224.73 76.22 1227.59 76.3833 1230.36 76.71C1238.69 77.69 1246.37 79.5683 1253.39 82.345C1260.58 84.9583 1266.79 88.5517 1272.01 93.125C1277.4 97.535 1281.57 102.925 1284.51 109.295C1287.45 115.502 1288.92 122.688 1288.92 130.855Z" fill="#5D002E"/>
</g>
<defs>
<filter id="filter0_i_150_201" x="-3.22021" y="0.76001" width="1292.14" height="190.445" filterUnits="userSpaceOnUse" color-interpolation-filters="sRGB">
<feFlood flood-opacity="0" result="BackgroundImageFix"/>
<feBlend mode="normal" in="SourceGraphic" in2="BackgroundImageFix" result="shape"/>
<feColorMatrix in="SourceAlpha" type="matrix" values="0 0 0 0 0 0 0 0 0 0 0 0 0 0 0 0 0 0 127 0" result="hardAlpha"/>
<feOffset dx="-8" dy="4"/>
<feGaussianBlur stdDeviation="2"/>
<feComposite in2="hardAlpha" operator="arithmetic" k2="-1" k3="1"/>
<feColorMatrix type="matrix" values="0 0 0 0 0 0 0 0 0 0 0 0 0 0 0 0 0 0 0.25 0"/>
<feBlend mode="normal" in2="shape" result="effect1_innerShadow_150_201"/>
</filter>
</defs>
</svg>
