<svg width="412" height="253" viewBox="0 0 412 253" fill="none" xmlns="http://www.w3.org/2000/svg">
<path d="M412 0H0V244H412V0Z" fill="url(#paint0_linear_185_32)"/>
<path d="M110.554 237.363C145.808 237.363 174.387 208.992 174.387 173.996C174.387 138.999 145.808 110.629 110.554 110.629C75.2997 110.629 46.7205 138.999 46.7205 173.996C46.7205 208.992 75.2997 237.363 110.554 237.363Z" fill="#D25A14" fill-opacity="0.375758"/>
<path d="M110.554 214.907C133.315 214.907 151.767 196.591 151.767 173.996C151.767 151.401 133.315 133.084 110.554 133.084C87.7927 133.084 69.3411 151.401 69.3411 173.996C69.3411 196.591 87.7927 214.907 110.554 214.907Z" fill="#D2550C"/>
<path d="M-25.9322 110.381C-22.307 105.977 -17.1705 103.576 -11.2553 102.73C-5.34015 101.885 1.89616 102.493 11.5262 106.284C21.1563 110.074 35.3 117.987 47.3125 124.232C59.3249 130.477 70.9111 135.964 83.7252 139.01C96.5393 142.056 111.573 142.894 122.942 143.202C134.31 143.51 142.652 143.298 152.718 146.27C162.784 149.243 175.352 155.568 185.459 158.875C195.566 162.182 203.835 162.502 213.427 161.229C223.019 159.955 234.38 157.079 247.332 155.429C260.284 153.78 275.2 153.362 288.126 152.75C301.051 152.138 312.927 151.279 324.608 148.46C336.29 145.64 349.207 140.609 358.376 138.944C367.545 137.28 373.757 138.515 382.224 142.724C390.691 146.933 402.04 154.589 410.953 159.034C419.865 163.479 432.126 166.604 437.301 169.869C442.476 173.134 446.921 190.41 439.754 198.54C432.587 206.67 412.203 215.49 394.279 220.181C376.354 224.872 358.279 226.568 332.074 227.901C305.869 229.234 271.509 230.209 242.185 231.209C212.861 232.21 188.542 233.238 163.365 233.777C138.188 234.315 111.94 234.367 87.365 237.333C62.79 240.299 39.047 246.348 22.2705 242.829C5.49391 239.311 -6.15525 225.568 -12.5194 213.506C-18.8835 201.444 -20.946 189.398 -23.7035 175.416C-26.4609 161.434 -30.0272 144.938 -30.8286 133.779C-31.63 122.619 -29.5575 114.785 -25.9322 110.381Z" fill="#E4E4E4" fill-opacity="0.39798"/>
<path d="M412 12C405.415 13.3677 399.273 15.0861 394.726 17.5552C386.908 21.8009 380.01 30.5222 371.041 36.4657C362.072 42.4093 345.622 48.7726 333.477 51.234C321.332 53.6954 310.851 53.3406 301.732 52.6532C292.613 51.9658 284.859 50.9363 274.293 54.2822C263.727 57.628 249.819 65.6055 235.364 71.6151C220.91 77.6247 204.732 82.0161 193.128 85.493C181.523 88.97 170.674 92.7825 168.273 93.8671C165.872 94.9518 179.823 103.846 189.278 103.995C198.733 104.144 212.352 100.59 225.581 98.9624C238.81 97.3348 253.636 97.559 266.128 98.6473C278.62 99.7356 291.924 101.851 310.447 100.838C328.969 99.8258 354.035 95.64 372.35 91.8232C388.602 88.4364 400.914 85.0362 412 81.5732V12Z" fill="#E4E4E4" fill-opacity="0.39798"/>
<path d="M0 11V91C5.23023 90.9779 10.3825 90.7555 15.2294 90.4023C31.695 89.2023 44.9037 86.4985 56.7495 81.9693C68.5952 77.4402 78.7114 71.3565 89.1058 67.0666C99.5003 62.7767 110.428 60.3616 115.773 59.1804C121.118 57.9991 108.085 37.8466 94.3997 33.8062C80.7143 29.7657 57.8042 28.947 39.7236 25.0741C24.396 21.791 11.9798 16.0904 0 11Z" fill="#E4E4E4" fill-opacity="0.39798"/>
<path d="M-0.5 162.443L32.7741 142.265L73.4111 165.64L151.559 150.247L193.446 166.78L246.587 125.162L324.11 159.939L349.743 147.966L382.252 161.079L412 129V249.966L-0.5 249.966V162.443Z" fill="url(#paint1_linear_185_32)"/>
<path d="M-0.5 158.708L16.0021 174.229L34.3013 166.096L65.5 179L86 169.5L126.812 190.106L174.79 159.94L237.288 182.718L328.194 167.327L384.5 181.5L412 167V250.123L-0.5 250.549V158.708Z" fill="#67003A"/>
<path d="M-0.5 174.113L26.4287 199.344L73.4641 193.19L105.839 214.729L169.367 208.575L210.905 235.037L275.044 238.114L317.804 220.883L354.455 230.114L386.5 203.5L412 210.421V253H-0.5V174.113Z" fill="#5D002E"/>
<g filter="url(#filter0_d_185_32)">
<path d="M107.708 107V89H114.332C115.452 89 116.428 89.2 117.26 89.6C118.092 89.984 118.78 90.496 119.324 91.136C119.884 91.776 120.3 92.512 120.572 93.344C120.86 94.16 121.004 95 121.004 95.864C121.004 96.712 120.86 97.552 120.572 98.384C120.3 99.2 119.884 99.928 119.324 100.568C118.78 101.208 118.092 101.728 117.26 102.128C116.428 102.512 115.452 102.704 114.332 102.704H111.788V107H107.708ZM111.788 92.84V98.888H114.332C114.924 98.888 115.42 98.744 115.82 98.456C116.236 98.152 116.54 97.776 116.732 97.328C116.924 96.88 117.02 96.392 117.02 95.864C117.036 95.336 116.94 94.848 116.732 94.4C116.54 93.952 116.236 93.584 115.82 93.296C115.42 92.992 114.924 92.84 114.332 92.84H111.788ZM122.946 93.176H126.954V106.976H122.946V93.176ZM126.954 89V92.216H122.946V89H126.954ZM136.203 103.232C136.843 103.232 137.419 103.024 137.931 102.608C138.443 102.192 138.819 101.648 139.059 100.976L142.899 101.36C142.755 102.112 142.483 102.824 142.083 103.496C141.699 104.168 141.211 104.76 140.619 105.272C140.043 105.784 139.379 106.192 138.627 106.496C137.875 106.784 137.067 106.928 136.203 106.928C135.323 106.928 134.467 106.752 133.635 106.4C132.819 106.048 132.091 105.568 131.451 104.96C130.827 104.336 130.323 103.608 129.939 102.776C129.571 101.928 129.387 101.016 129.387 100.04C129.387 99.144 129.555 98.288 129.891 97.472C130.243 96.64 130.723 95.904 131.331 95.264C131.939 94.624 132.651 94.112 133.467 93.728C134.283 93.328 135.163 93.112 136.107 93.08C136.987 93.064 137.843 93.216 138.675 93.536C139.507 93.856 140.235 94.336 140.859 94.976C141.499 95.6 141.995 96.376 142.347 97.304C142.715 98.232 142.875 99.288 142.827 100.472H133.251C133.299 100.824 133.403 101.168 133.563 101.504C133.739 101.84 133.955 102.136 134.211 102.392C134.467 102.648 134.763 102.856 135.099 103.016C135.451 103.16 135.819 103.232 136.203 103.232ZM136.203 96.872C135.707 96.872 135.251 96.992 134.835 97.232C134.435 97.472 134.083 97.8 133.779 98.216H138.627C138.403 97.816 138.059 97.496 137.595 97.256C137.147 97 136.683 96.872 136.203 96.872ZM149.407 93.512C150.399 93.112 151.415 92.952 152.455 93.032C153.511 93.112 154.519 93.432 155.479 93.992L153.871 97.784L153.823 97.736C153.343 97.224 152.727 96.968 151.975 96.968C151.591 96.968 151.239 97.04 150.919 97.184C150.615 97.312 150.343 97.496 150.103 97.736C149.879 97.976 149.703 98.264 149.575 98.6C149.463 98.92 149.407 99.264 149.407 99.632V107.024H149.359H145.375V93.224H149.407V93.512ZM161.664 93.512C162.656 93.112 163.672 92.952 164.712 93.032C165.768 93.112 166.776 93.432 167.736 93.992L166.128 97.784L166.08 97.736C165.6 97.224 164.984 96.968 164.232 96.968C163.848 96.968 163.496 97.04 163.176 97.184C162.872 97.312 162.6 97.496 162.36 97.736C162.136 97.976 161.96 98.264 161.832 98.6C161.72 98.92 161.664 99.264 161.664 99.632V107.024H161.616H157.632V93.224H161.664V93.512ZM176.562 103.232C177.202 103.232 177.778 103.024 178.29 102.608C178.802 102.192 179.178 101.648 179.418 100.976L183.258 101.36C183.114 102.112 182.842 102.824 182.442 103.496C182.058 104.168 181.57 104.76 180.978 105.272C180.402 105.784 179.738 106.192 178.986 106.496C178.234 106.784 177.426 106.928 176.562 106.928C175.682 106.928 174.826 106.752 173.994 106.4C173.178 106.048 172.45 105.568 171.81 104.96C171.186 104.336 170.682 103.608 170.298 102.776C169.93 101.928 169.746 101.016 169.746 100.04C169.746 99.144 169.914 98.288 170.25 97.472C170.602 96.64 171.082 95.904 171.69 95.264C172.298 94.624 173.01 94.112 173.826 93.728C174.642 93.328 175.522 93.112 176.466 93.08C177.346 93.064 178.202 93.216 179.034 93.536C179.866 93.856 180.594 94.336 181.218 94.976C181.858 95.6 182.354 96.376 182.706 97.304C183.074 98.232 183.234 99.288 183.186 100.472H173.61C173.658 100.824 173.762 101.168 173.922 101.504C174.098 101.84 174.314 102.136 174.57 102.392C174.826 102.648 175.122 102.856 175.458 103.016C175.81 103.16 176.178 103.232 176.562 103.232ZM176.562 96.872C176.066 96.872 175.61 96.992 175.194 97.232C174.794 97.472 174.442 97.8 174.138 98.216H178.986C178.762 97.816 178.418 97.496 177.954 97.256C177.506 97 177.042 96.872 176.562 96.872ZM200.106 101.816L203.682 88.976H208.074L202.986 106.976H197.178L192.09 88.976H196.506L200.106 101.816ZM219.773 93.176H223.781V106.976H219.773V106.232C218.733 106.872 217.581 107.192 216.317 107.192C215.405 107.192 214.525 107.016 213.677 106.664C212.845 106.296 212.109 105.8 211.469 105.176C210.829 104.552 210.317 103.816 209.933 102.968C209.565 102.12 209.381 101.216 209.381 100.256C209.381 99.344 209.557 98.472 209.909 97.64C210.277 96.792 210.773 96.056 211.397 95.432C212.021 94.792 212.757 94.288 213.605 93.92C214.453 93.536 215.357 93.344 216.317 93.344C216.941 93.344 217.541 93.424 218.117 93.584C218.709 93.744 219.261 93.968 219.773 94.256V93.176ZM216.317 103.208C216.701 103.208 217.069 103.136 217.421 102.992C217.789 102.832 218.109 102.624 218.381 102.368C218.653 102.096 218.869 101.784 219.029 101.432C219.189 101.064 219.269 100.672 219.269 100.256C219.269 99.872 219.189 99.504 219.029 99.152C218.885 98.784 218.677 98.464 218.405 98.192C218.149 97.92 217.837 97.704 217.469 97.544C217.117 97.384 216.733 97.304 216.317 97.304C215.933 97.304 215.557 97.384 215.189 97.544C214.837 97.688 214.517 97.896 214.229 98.168C213.957 98.424 213.741 98.736 213.581 99.104C213.421 99.456 213.341 99.84 213.341 100.256C213.341 100.656 213.413 101.032 213.557 101.384C213.717 101.736 213.933 102.048 214.205 102.32C214.477 102.592 214.789 102.808 215.141 102.968C215.509 103.128 215.901 103.208 216.317 103.208ZM233.099 93.008C233.963 93.008 234.787 93.184 235.571 93.536C236.371 93.872 237.075 94.336 237.683 94.928C238.307 95.52 238.795 96.216 239.147 97.016C239.515 97.816 239.699 98.672 239.699 99.584V107.024H235.691V99.584C235.691 99.248 235.619 98.92 235.475 98.6C235.347 98.28 235.163 98 234.923 97.76C234.699 97.52 234.427 97.328 234.107 97.184C233.787 97.04 233.451 96.968 233.099 96.968C232.459 96.968 231.899 97.168 231.419 97.568C230.939 97.968 230.635 98.488 230.507 99.128V107.024H230.459H226.475V93.224H230.507V93.512C230.907 93.352 231.323 93.232 231.755 93.152C232.187 93.056 232.635 93.008 233.099 93.008ZM246.132 93.488C246.756 93.232 247.42 93.08 248.124 93.032C248.828 92.968 249.516 93.008 250.188 93.152C250.876 93.296 251.532 93.544 252.156 93.896C252.78 94.248 253.324 94.696 253.788 95.24C254.252 95.768 254.612 96.392 254.868 97.112C255.14 97.816 255.276 98.624 255.276 99.536V106.976H251.316V99.536C251.316 99.04 251.212 98.616 251.004 98.264C250.796 97.896 250.524 97.616 250.188 97.424C249.868 97.216 249.508 97.096 249.108 97.064C248.708 97.016 248.316 97.064 247.932 97.208C247.548 97.336 247.196 97.56 246.876 97.88C246.556 98.184 246.308 98.584 246.132 99.08V106.976H246.108H242.124V89H246.132V93.488ZM264.143 93.152C265.023 93.152 265.871 93.328 266.687 93.68C267.519 94.032 268.255 94.52 268.895 95.144C269.535 95.752 270.039 96.48 270.407 97.328C270.791 98.16 270.983 99.064 270.983 100.04C270.983 100.952 270.807 101.824 270.455 102.656C270.103 103.472 269.615 104.2 268.991 104.84C268.383 105.48 267.663 105.992 266.831 106.376C265.999 106.744 265.103 106.928 264.143 106.928C263.263 106.928 262.407 106.752 261.575 106.4C260.759 106.048 260.031 105.568 259.391 104.96C258.767 104.336 258.263 103.608 257.879 102.776C257.511 101.928 257.327 101.016 257.327 100.04C257.327 99.16 257.495 98.312 257.831 97.496C258.183 96.664 258.663 95.928 259.271 95.288C259.879 94.648 260.599 94.136 261.431 93.752C262.263 93.352 263.167 93.152 264.143 93.152ZM264.143 103.232C264.559 103.232 264.943 103.144 265.295 102.968C265.663 102.792 265.983 102.56 266.255 102.272C266.527 101.968 266.743 101.624 266.903 101.24C267.063 100.856 267.143 100.456 267.143 100.04C267.143 99.64 267.063 99.248 266.903 98.864C266.759 98.48 266.551 98.144 266.279 97.856C266.023 97.552 265.711 97.312 265.343 97.136C264.975 96.96 264.575 96.872 264.143 96.872C263.727 96.872 263.335 96.96 262.967 97.136C262.615 97.312 262.303 97.544 262.031 97.832C261.759 98.12 261.543 98.456 261.383 98.84C261.239 99.224 261.167 99.624 261.167 100.04C261.167 100.44 261.239 100.832 261.383 101.216C261.527 101.6 261.727 101.944 261.983 102.248C262.255 102.536 262.575 102.776 262.943 102.968C263.311 103.144 263.711 103.232 264.143 103.232ZM281.13 93.2H285.162L281.586 107.024H275.706L272.154 93.2H276.21L278.658 102.8L281.13 93.2ZM293.328 103.232C293.968 103.232 294.544 103.024 295.056 102.608C295.568 102.192 295.944 101.648 296.184 100.976L300.024 101.36C299.88 102.112 299.608 102.824 299.208 103.496C298.824 104.168 298.336 104.76 297.744 105.272C297.168 105.784 296.504 106.192 295.752 106.496C295 106.784 294.192 106.928 293.328 106.928C292.448 106.928 291.592 106.752 290.76 106.4C289.944 106.048 289.216 105.568 288.576 104.96C287.952 104.336 287.448 103.608 287.064 102.776C286.696 101.928 286.512 101.016 286.512 100.04C286.512 99.144 286.68 98.288 287.016 97.472C287.368 96.64 287.848 95.904 288.456 95.264C289.064 94.624 289.776 94.112 290.592 93.728C291.408 93.328 292.288 93.112 293.232 93.08C294.112 93.064 294.968 93.216 295.8 93.536C296.632 93.856 297.36 94.336 297.984 94.976C298.624 95.6 299.12 96.376 299.472 97.304C299.84 98.232 300 99.288 299.952 100.472H290.376C290.424 100.824 290.528 101.168 290.688 101.504C290.864 101.84 291.08 102.136 291.336 102.392C291.592 102.648 291.888 102.856 292.224 103.016C292.576 103.16 292.944 103.232 293.328 103.232ZM293.328 96.872C292.832 96.872 292.376 96.992 291.96 97.232C291.56 97.472 291.208 97.8 290.904 98.216H295.752C295.528 97.816 295.184 97.496 294.72 97.256C294.272 97 293.808 96.872 293.328 96.872Z" fill="#4B4646"/>
</g>
<defs>
<filter id="filter0_d_185_32" x="99.7084" y="80.976" width="212.316" height="38.216" filterUnits="userSpaceOnUse" color-interpolation-filters="sRGB">
<feFlood flood-opacity="0" result="BackgroundImageFix"/>
<feColorMatrix in="SourceAlpha" type="matrix" values="0 0 0 0 0 0 0 0 0 0 0 0 0 0 0 0 0 0 127 0" result="hardAlpha"/>
<feOffset dx="2" dy="2"/>
<feGaussianBlur stdDeviation="5"/>
<feComposite in2="hardAlpha" operator="out"/>
<feColorMatrix type="matrix" values="0 0 0 0 0 0 0 0 0 0 0 0 0 0 0 0 0 0 0.25 0"/>
<feBlend mode="normal" in2="BackgroundImageFix" result="effect1_dropShadow_185_32"/>
<feBlend mode="normal" in="SourceGraphic" in2="effect1_dropShadow_185_32" result="shape"/>
</filter>
<linearGradient id="paint0_linear_185_32" x1="206" y1="338.499" x2="206" y2="-94.4995" gradientUnits="userSpaceOnUse">
<stop offset="0.144112" stop-color="#E49351"/>
<stop offset="1" stop-color="#F99EE1"/>
</linearGradient>
<linearGradient id="paint1_linear_185_32" x1="202.512" y1="3.15698" x2="202.512" y2="421.622" gradientUnits="userSpaceOnUse">
<stop stop-color="#A20050" stop-opacity="0.929412"/>
<stop offset="0.741652" stop-color="#FFA9A0"/>
</linearGradient>
</defs>
</svg>
