<svg width="1920" height="1010" viewBox="0 0 1920 1010" fill="none" xmlns="http://www.w3.org/2000/svg">
<path d="M-29.2866 437.936C-13.7538 419.067 8.25389 408.778 33.5979 405.157C58.9419 401.536 89.9465 404.141 131.207 420.381C172.468 436.62 233.068 470.526 284.537 497.283C336.005 524.041 385.647 547.548 440.55 560.599C495.453 573.65 559.867 577.24 608.576 578.56C657.285 579.88 693.027 578.974 736.156 591.708C779.286 604.442 833.133 631.543 876.437 645.713C919.741 659.883 955.171 661.256 996.268 655.799C1037.37 650.342 1086.04 638.018 1141.54 630.95C1197.03 623.882 1260.94 622.091 1316.32 619.47C1371.7 616.848 1422.58 613.167 1472.63 601.087C1522.68 589.008 1578.03 567.449 1617.32 560.318C1656.6 553.187 1683.22 558.479 1719.49 576.514C1755.77 594.549 1804.4 627.348 1842.58 646.395C1880.77 665.441 1933.3 678.83 1955.48 692.818C1977.65 706.806 1996.69 780.826 1965.98 815.662C1935.28 850.497 1847.94 888.287 1771.14 908.386C1694.34 928.485 1616.9 935.748 1504.62 941.46C1392.34 947.171 1245.12 951.349 1119.48 955.637C993.845 959.924 889.644 964.328 781.772 966.636C673.899 968.943 561.438 969.164 456.145 981.873C350.851 994.581 249.123 1020.5 177.242 1005.42C105.361 990.348 55.4496 931.467 28.182 879.786C0.914375 828.105 -7.92262 776.493 -19.7372 716.585C-31.5518 656.677 -46.8319 586.001 -50.2656 538.185C-53.6993 490.37 -44.8194 456.806 -29.2866 437.936Z" fill="#E4E4E4" fill-opacity="0.39798"/>
<path d="M1954.74 0C1924.56 5.88631 1896.4 13.2823 1875.56 23.9088C1839.73 42.1819 1808.11 79.7172 1767 105.298C1725.89 130.878 1650.49 158.265 1594.83 168.858C1539.16 179.452 1491.12 177.925 1449.32 174.966C1407.52 172.008 1371.98 167.577 1323.55 181.977C1275.12 196.377 1211.38 230.711 1145.12 256.576C1078.87 282.441 1004.72 301.341 951.53 316.305C898.34 331.269 848.613 347.678 837.608 352.346C826.603 357.014 890.546 395.296 933.883 395.937C977.22 396.578 1039.64 381.281 1100.28 374.275C1160.91 367.27 1228.87 368.235 1286.13 372.919C1343.38 377.603 1404.36 386.707 1489.26 382.349C1574.16 377.992 1689.05 359.976 1773 343.549C1847.49 328.973 1903.92 314.339 1954.74 299.434V0Z" fill="#E4E4E4" fill-opacity="0.39798"/>
<path d="M-16.7717 9.90271V355.889C9.13651 355.793 34.6588 354.831 58.6679 353.303C140.231 348.114 205.661 336.42 264.34 316.833C323.019 297.245 373.13 270.934 424.619 252.381C476.109 233.828 530.24 223.383 556.716 218.274C583.193 213.166 518.635 126.009 450.843 108.535C383.051 91.0612 269.565 87.5202 180.001 70.7709C104.075 56.5719 42.5708 31.9178 -16.7717 9.90271Z" fill="#E4E4E4" fill-opacity="0.39798"/>
</svg>
