<svg width="1489" height="314" viewBox="0 0 1489 314" fill="none" xmlns="http://www.w3.org/2000/svg">
<path d="M7.97246 38.3465C12.3755 38.3465 15.9449 34.7924 15.9449 30.4081C15.9449 26.0237 12.3755 22.4696 7.97246 22.4696C3.56939 22.4696 0 26.0237 0 30.4081C0 34.7924 3.56939 38.3465 7.97246 38.3465Z" fill="#FEFEFE"/>
<path d="M556.665 97.1847C561.068 97.1847 564.638 93.6305 564.638 89.2462C564.638 84.8619 561.068 81.3077 556.665 81.3077C552.262 81.3077 548.693 84.8619 548.693 89.2462C548.693 93.6305 552.262 97.1847 556.665 97.1847Z" fill="#FEFEFE"/>
<path d="M364.388 27.1392C368.791 27.1392 372.361 23.5851 372.361 19.2008C372.361 14.8165 368.791 11.2623 364.388 11.2623C359.985 11.2623 356.416 14.8165 356.416 19.2008C356.416 23.5851 359.985 27.1392 364.388 27.1392Z" fill="#FEFEFE"/>
<path d="M816.731 36.6342C821.134 36.6342 824.703 33.08 824.703 28.6957C824.703 24.3114 821.134 20.7572 816.731 20.7572C812.327 20.7572 808.758 24.3114 808.758 28.6957C808.758 33.08 812.327 36.6342 816.731 36.6342Z" fill="#FEFEFE"/>
<path d="M288.807 192.487C293.21 192.487 296.779 188.933 296.779 184.549C296.779 180.165 293.21 176.61 288.807 176.61C284.404 176.61 280.834 180.165 280.834 184.549C280.834 188.933 284.404 192.487 288.807 192.487Z" fill="#FEFEFE"/>
<path d="M779.59 314C783.993 314 787.563 310.446 787.563 306.062C787.563 301.677 783.993 298.123 779.59 298.123C775.187 298.123 771.618 301.677 771.618 306.062C771.618 310.446 775.187 314 779.59 314Z" fill="#FEFEFE"/>
<path d="M1017.06 90.3266C1021.47 90.3266 1025.03 86.7724 1025.03 82.3881C1025.03 78.0038 1021.47 74.4496 1017.06 74.4496C1012.66 74.4496 1009.09 78.0038 1009.09 82.3881C1009.09 86.7724 1012.66 90.3266 1017.06 90.3266Z" fill="#FEFEFE"/>
<path d="M1320.78 311.358C1325.18 311.358 1328.75 307.804 1328.75 303.42C1328.75 299.036 1325.18 295.482 1320.78 295.482C1316.38 295.482 1312.81 299.036 1312.81 303.42C1312.81 307.804 1316.38 311.358 1320.78 311.358Z" fill="#FEFEFE"/>
<path d="M1344.65 144.939C1349.06 144.939 1352.63 141.385 1352.63 137C1352.63 132.616 1349.06 129.062 1344.65 129.062C1340.25 129.062 1336.68 132.616 1336.68 137C1336.68 141.385 1340.25 144.939 1344.65 144.939Z" fill="#FEFEFE"/>
<path d="M1481.03 15.877C1485.43 15.877 1489 12.3228 1489 7.93849C1489 3.55419 1485.43 0 1481.03 0C1476.62 0 1473.05 3.55419 1473.05 7.93849C1473.05 12.3228 1476.62 15.877 1481.03 15.877Z" fill="#FEFEFE"/>
</svg>
