<svg width="808" height="195" viewBox="0 0 808 195" fill="none" xmlns="http://www.w3.org/2000/svg">
<g filter="url(#filter0_d_155_280)">
<path d="M144.81 132.75C144.81 142.083 142.81 150.333 138.81 157.5C134.976 164.5 129.81 170.417 123.31 175.25C116.976 179.917 109.643 183.5 101.31 186C93.1429 188.5 84.6429 189.833 75.8096 190C67.1429 190.167 58.5596 189.25 50.0596 187.25C41.7262 185.083 34.1429 181.833 27.3096 177.5C20.6429 173 15.0596 167.417 10.5596 160.75C6.22624 153.917 3.72624 146 3.05957 137L42.5596 133.75C42.7262 137.75 44.0596 141.167 46.5596 144C49.2262 146.833 52.4762 149.083 56.3096 150.75C60.1429 152.25 64.3096 153.25 68.8096 153.75C73.4762 154.083 78.0596 153.917 82.5596 153.25C89.2262 152.417 94.5596 150.25 98.5596 146.75C102.56 143.083 104.81 139.167 105.31 135C105.81 130.667 104.31 126.667 100.81 123C97.3096 119.167 91.3929 116.667 83.0596 115.5C75.5596 114.167 68.1429 113.25 60.8096 112.75C53.4762 112.25 46.3929 110.917 39.5596 108.75C27.2262 105.417 17.6429 99.25 10.8096 90.25C3.97624 81.0833 0.559571 70.5 0.559571 58.5C0.559571 49.1667 2.47624 40.9167 6.30957 33.75C10.3096 26.5833 15.4762 20.6667 21.8096 16C28.3096 11.1667 35.7262 7.49999 44.0596 4.99999C52.3929 2.49999 60.8929 1.16666 69.5596 0.999994C78.2262 0.666655 86.7262 1.58332 95.0596 3.74999C103.56 5.91666 111.226 9.24999 118.06 13.75C124.893 18.0833 130.476 23.5833 134.81 30.25C139.31 36.9167 141.893 44.75 142.56 53.75L102.81 57.5C102.643 54.1667 101.643 51.25 99.8096 48.75C97.9762 46.0833 95.5596 43.9167 92.5596 42.25C89.7262 40.4167 86.4762 39.0833 82.8096 38.25C79.3096 37.4167 75.6429 37 71.8096 37C66.1429 37 61.0596 37.9167 56.5596 39.75C52.2262 41.4167 48.6429 43.5833 45.8096 46.25C43.1429 48.9167 41.3929 51.9167 40.5596 55.25C39.8929 58.4167 40.3096 61.5 41.8096 64.5C43.3096 67.3333 46.1429 69.9167 50.3096 72.25C54.4762 74.4167 60.1429 75.8333 67.3096 76.5C70.4762 76.8333 73.4762 77 76.3096 77C79.3096 77 82.2262 77.1667 85.0596 77.5C93.5596 78.5 101.393 80.4167 108.56 83.25C115.893 85.9167 122.226 89.5833 127.56 94.25C133.06 98.75 137.31 104.25 140.31 110.75C143.31 117.083 144.81 124.417 144.81 132.75ZM254.761 94.75L307.011 187.75H263.511L238.261 142L230.511 127.75L222.011 112.5H213.261V187.75H179.011H172.761H171.511V0.499985H213.261V91.25L263.511 0.499985H306.761L254.761 94.75ZM330.899 0.749997H372.899V188.25H330.899V0.749997ZM438.317 146.5H504.567V188.25H396.317V0.749997H438.317V146.5ZM570.153 146.5H636.403V188.25H528.153V0.749997H570.153V146.5ZM803.989 132.75C803.989 142.083 801.989 150.333 797.989 157.5C794.156 164.5 788.989 170.417 782.489 175.25C776.156 179.917 768.823 183.5 760.489 186C752.323 188.5 743.823 189.833 734.989 190C726.323 190.167 717.739 189.25 709.239 187.25C700.906 185.083 693.323 181.833 686.489 177.5C679.823 173 674.239 167.417 669.739 160.75C665.406 153.917 662.906 146 662.239 137L701.739 133.75C701.906 137.75 703.239 141.167 705.739 144C708.406 146.833 711.656 149.083 715.489 150.75C719.323 152.25 723.489 153.25 727.989 153.75C732.656 154.083 737.239 153.917 741.739 153.25C748.406 152.417 753.739 150.25 757.739 146.75C761.739 143.083 763.989 139.167 764.489 135C764.989 130.667 763.489 126.667 759.989 123C756.489 119.167 750.573 116.667 742.239 115.5C734.739 114.167 727.323 113.25 719.989 112.75C712.656 112.25 705.573 110.917 698.739 108.75C686.406 105.417 676.823 99.25 669.989 90.25C663.156 81.0833 659.739 70.5 659.739 58.5C659.739 49.1667 661.656 40.9167 665.489 33.75C669.489 26.5833 674.656 20.6667 680.989 16C687.489 11.1667 694.906 7.49999 703.239 4.99999C711.573 2.49999 720.073 1.16666 728.739 0.999994C737.406 0.666655 745.906 1.58332 754.239 3.74999C762.739 5.91666 770.406 9.24999 777.239 13.75C784.073 18.0833 789.656 23.5833 793.989 30.25C798.489 36.9167 801.073 44.75 801.739 53.75L761.989 57.5C761.823 54.1667 760.823 51.25 758.989 48.75C757.156 46.0833 754.739 43.9167 751.739 42.25C748.906 40.4167 745.656 39.0833 741.989 38.25C738.489 37.4167 734.823 37 730.989 37C725.323 37 720.239 37.9167 715.739 39.75C711.406 41.4167 707.823 43.5833 704.989 46.25C702.323 48.9167 700.573 51.9167 699.739 55.25C699.073 58.4167 699.489 61.5 700.989 64.5C702.489 67.3333 705.323 69.9167 709.489 72.25C713.656 74.4167 719.323 75.8333 726.489 76.5C729.656 76.8333 732.656 77 735.489 77C738.489 77 741.406 77.1667 744.239 77.5C752.739 78.5 760.573 80.4167 767.739 83.25C775.073 85.9167 781.406 89.5833 786.739 94.25C792.239 98.75 796.489 104.25 799.489 110.75C802.489 117.083 803.989 124.417 803.989 132.75Z" fill="url(#paint0_linear_155_280)"/>
</g>
<defs>
<filter id="filter0_d_155_280" x="0.55957" y="0.499985" width="807.43" height="193.75" filterUnits="userSpaceOnUse" color-interpolation-filters="sRGB">
<feFlood flood-opacity="0" result="BackgroundImageFix"/>
<feColorMatrix in="SourceAlpha" type="matrix" values="0 0 0 0 0 0 0 0 0 0 0 0 0 0 0 0 0 0 127 0" result="hardAlpha"/>
<feOffset dx="3" dy="3"/>
<feGaussianBlur stdDeviation="0.5"/>
<feComposite in2="hardAlpha" operator="out"/>
<feColorMatrix type="matrix" values="0 0 0 0 0 0 0 0 0 0 0 0 0 0 0 0 0 0 0.5 0"/>
<feBlend mode="normal" in2="BackgroundImageFix" result="effect1_dropShadow_155_280"/>
<feBlend mode="normal" in="SourceGraphic" in2="effect1_dropShadow_155_280" result="shape"/>
</filter>
<linearGradient id="paint0_linear_155_280" x1="440.5" y1="353.5" x2="440.5" y2="-65" gradientUnits="userSpaceOnUse">
<stop stop-color="#7E4848"/>
<stop offset="1" stop-color="#FF9C9C"/>
</linearGradient>
</defs>
</svg>
